<svg xmlns="http://www.w3.org/2000/svg" width="18" height="18"><path fill="#212121" d="M9 1C4.589 1 1 4.589 1 9c0 1.396.371 2.776 1.062 3.971.238.446-.095 2.002-.842 2.749a.75.75 0 0 0 .49 1.279c.079.004.16.006.241.006 1.145 0 2.535-.407 3.44-.871A7.94 7.94 0 0 0 9 17c4.411 0 8-3.589 8-8s-3.589-8-8-8Zm-.5 9.75a.75.75 0 0 1-.75.75h-2a.75.75 0 0 1-.75-.75v-1.5c0-1.953.684-3.128 2.152-3.699a.751.751 0 0 1 .544 1.398c-.503.195-.996.485-1.148 1.551H7.75a.75.75 0 0 1 .75.75v1.5Zm4.5 0a.75.75 0 0 1-.75.75h-2a.75.75 0 0 1-.75-.75v-1.5c0-1.953.684-3.128 2.152-3.699a.751.751 0 0 1 .544 1.398c-.503.195-.996.485-1.148 1.551h1.202a.75.75 0 0 1 .75.75v1.5Z" class="nc-icon-wrapper"/></svg>